<svg width="200" height="60" viewBox="0 0 200 60" xmlns="http://www.w3.org/2000/svg">
  <!-- Cyber Sentinels Text -->
  <text x="50%" y="15" font-family="Arial, sans-serif" font-size="10" fill="#FF69B4" text-anchor="middle">Cyber Sentinels</text>

  <!-- VEDANT Letters -->
  <!-- V -->
  <polygon points="30,25 40,45 50,25" stroke="#00BFFF" stroke-width="2" fill="none"/>
  <!-- E -->
  <rect x="55" y="25" width="15" height="20" fill="#00BFFF"/>
  <rect x="55" y="25" width="15" height="3" fill="#00BFFF"/>
  <rect x="55" y="33.5" width="10" height="3" fill="#00BFFF"/>
  <rect x="55" y="42" width="15" height="3" fill="#00BFFF"/>
  <!-- D -->
  <path d="M75 25 L 75 45 L 85 45 Q 95 35 85 25 L 75 25 Z" fill="#00BFFF"/>
  <!-- A -->
  <polygon points="100,45 107.5,25 115,45" stroke="#00BFFF" stroke-width="2" fill="none"/>
  <line x1="103.75" y1="35" x2="111.25" y2="35" stroke="#00BFFF" stroke-width="2"/>
  <!-- N -->
  <polygon points="120,45 120,25 135,45 135,25" stroke="#00BFFF" stroke-width="2" fill="#00BFFF"/>
  <line x1="120" y1="25" x2="135" y2="45" stroke="#00BFFF" stroke-width="2"/>
  <!-- T -->
  <line x1="140" y1="25" x2="160" y2="25" stroke="#00BFFF" stroke-width="2" fill="#00BFFF"/>
  <line x1="150" y1="25" x2="150" y2="45" stroke="#00BFFF" stroke-width="2" fill="#00BFFF"/>
</svg>
