<svg xmlns="http://www.w3.org/2000/svg" xmlns:xlink="http://www.w3.org/1999/xlink" width="500" zoomAndPan="magnify" viewBox="0 0 375 374.999991" height="500" preserveAspectRatio="xMidYMid meet" version="1.0"><defs><g/><clipPath id="d279ed120a"><path d="M 0 2.332031 L 371.808594 2.332031 L 371.808594 375 L 0 375 Z M 0 2.332031 " clip-rule="nonzero"/></clipPath><clipPath id="4b630a466c"><path d="M 91 93 L 277 93 L 277 278 L 91 278 Z M 91 93 " clip-rule="nonzero"/></clipPath><clipPath id="1471b02108"><path d="M 90.160156 109.410156 L 90.160156 261.707031 C 90.160156 271.648438 98.21875 279.707031 108.160156 279.707031 L 260.457031 279.707031 C 270.398438 279.707031 278.457031 271.648438 278.457031 261.707031 L 278.457031 109.410156 C 278.457031 99.46875 270.398438 91.410156 260.457031 91.410156 L 108.160156 91.410156 C 98.21875 91.410156 90.160156 99.46875 90.160156 109.410156 Z M 90.160156 109.410156 " clip-rule="nonzero"/></clipPath><clipPath id="01e933053e"><path d="M 90.160156 91.410156 L 278.410156 91.410156 L 278.410156 279.660156 L 90.160156 279.660156 Z M 90.160156 91.410156 " clip-rule="nonzero"/></clipPath><clipPath id="b050b82856"><path d="M 90.160156 109.410156 L 90.160156 261.707031 C 90.160156 271.648438 98.21875 279.707031 108.160156 279.707031 L 260.457031 279.707031 C 270.398438 279.707031 278.457031 271.648438 278.457031 261.707031 L 278.457031 109.410156 C 278.457031 99.46875 270.398438 91.410156 260.457031 91.410156 L 108.160156 91.410156 C 98.21875 91.410156 90.160156 99.46875 90.160156 109.410156 Z M 90.160156 109.410156 " clip-rule="nonzero"/></clipPath><clipPath id="924a8cd202"><path d="M 172.394531 156.285156 L 182 156.285156 L 182 206.699219 L 172.394531 206.699219 Z M 172.394531 156.285156 " clip-rule="nonzero"/></clipPath><clipPath id="9832b29b80"><path d="M 177.195312 156.285156 L 182 206.667969 L 172.394531 206.667969 Z M 177.195312 156.285156 " clip-rule="nonzero"/></clipPath></defs><rect x="-37.5" width="450" fill="#ffffff" y="-37.499999" height="449.999989" fill-opacity="1"/><rect x="-37.5" width="450" fill="#000000" y="-37.499999" height="449.999989" fill-opacity="1"/><g clip-path="url(#d279ed120a)"><path fill="#ffffff" d="M 26.671875 231.046875 C 24.464844 236.867188 18.832031 241.011719 12.242188 241.011719 C 3.722656 241.011719 -3.191406 234.09375 -3.191406 225.578125 C -3.191406 217.0625 3.722656 210.148438 12.242188 210.148438 C 18.832031 210.148438 24.464844 214.289062 26.671875 220.109375 L 66.640625 220.109375 L 66.640625 231.046875 Z M 20.507812 134.082031 C 14.683594 131.875 10.542969 126.242188 10.542969 119.652344 C 10.542969 111.132812 17.457031 104.21875 25.976562 104.21875 C 34.492188 104.21875 41.40625 111.132812 41.40625 119.652344 C 41.40625 126.242188 37.265625 131.875 31.445312 134.082031 L 31.445312 155.320312 L 66.640625 155.320312 L 66.640625 166.257812 L 30.742188 166.257812 C 24.800781 166.257812 20.507812 161.742188 20.507812 156.925781 Z M 143.257812 32.359375 C 137.433594 30.152344 133.292969 24.519531 133.292969 17.925781 C 133.292969 9.410156 140.207031 2.496094 148.726562 2.496094 C 157.242188 2.496094 164.15625 9.410156 164.15625 17.925781 C 164.15625 24.519531 160.015625 30.152344 154.195312 32.359375 L 154.195312 75.859375 L 143.257812 75.859375 Z M 240.21875 37.132812 L 218.980469 37.132812 L 218.980469 75.859375 L 208.042969 75.859375 L 208.042969 36.429688 C 208.042969 30.488281 212.558594 26.195312 217.378906 26.195312 L 240.21875 26.195312 C 242.429688 20.371094 248.0625 16.230469 254.652344 16.230469 C 263.171875 16.230469 270.085938 23.144531 270.085938 31.664062 C 270.085938 40.179688 263.171875 47.09375 254.652344 47.09375 C 248.0625 47.09375 242.429688 42.953125 240.21875 37.132812 Z M 344.601562 134.082031 L 344.601562 156.925781 C 344.601562 161.742188 340.308594 166.257812 334.367188 166.257812 L 294.910156 166.257812 L 294.910156 155.320312 L 333.664062 155.320312 L 333.664062 134.082031 C 327.84375 131.875 323.703125 126.242188 323.703125 119.652344 C 323.703125 111.132812 330.617188 104.21875 339.132812 104.21875 C 347.648438 104.21875 354.566406 111.132812 354.566406 119.652344 C 354.566406 126.242188 350.421875 131.875 344.601562 134.082031 Z M 341.945312 231.046875 L 294.910156 231.046875 L 294.910156 220.109375 L 341.945312 220.109375 C 344.152344 214.289062 349.785156 210.148438 356.375 210.148438 C 364.894531 210.148438 371.808594 217.0625 371.808594 225.578125 C 371.808594 234.09375 364.894531 241.011719 356.375 241.011719 C 349.785156 241.011719 344.152344 236.867188 341.945312 231.046875 Z M 240.21875 350.289062 L 217.378906 350.289062 C 212.558594 350.289062 208.042969 345.996094 208.042969 340.050781 L 208.042969 304.128906 L 218.980469 304.128906 L 218.980469 339.351562 L 240.21875 339.351562 C 242.429688 333.53125 248.0625 329.386719 254.652344 329.386719 C 263.171875 329.386719 270.085938 336.300781 270.085938 344.820312 C 270.085938 353.335938 263.171875 360.25 254.652344 360.25 C 248.0625 360.25 242.429688 356.109375 240.21875 350.289062 Z M 143.257812 345.816406 L 143.257812 304.128906 L 154.195312 304.128906 L 154.195312 345.816406 C 160.015625 348.027344 164.15625 353.660156 164.15625 360.25 C 164.15625 368.769531 157.242188 375.683594 148.726562 375.683594 C 140.207031 375.683594 133.292969 368.769531 133.292969 360.25 C 133.292969 353.660156 137.433594 348.027344 143.257812 345.816406 Z M 66.640625 198.652344 L 59.339844 198.652344 C 56.320312 198.652344 53.871094 196.203125 53.871094 193.183594 C 53.871094 190.167969 56.320312 187.714844 59.339844 187.714844 L 66.640625 187.714844 Z M 66.640625 131.5 L 59.339844 131.5 C 56.320312 131.5 53.871094 129.046875 53.871094 126.03125 C 53.871094 123.011719 56.320312 120.5625 59.339844 120.5625 L 66.640625 120.5625 Z M 108.496094 75.859375 L 108.496094 65.027344 C 108.496094 62.007812 110.945312 59.558594 113.964844 59.558594 C 116.980469 59.558594 119.433594 62.007812 119.433594 65.027344 L 119.433594 75.859375 Z M 175.648438 75.859375 L 175.648438 65.027344 C 175.648438 62.007812 178.101562 59.558594 181.117188 59.558594 C 184.136719 59.558594 186.585938 62.007812 186.585938 65.027344 L 186.585938 75.859375 Z M 242.804688 75.859375 L 242.804688 65.027344 C 242.804688 62.007812 245.253906 59.558594 248.273438 59.558594 C 251.292969 59.558594 253.742188 62.007812 253.742188 65.027344 L 253.742188 75.859375 Z M 294.910156 120.5625 L 309.277344 120.5625 C 312.296875 120.5625 314.746094 123.011719 314.746094 126.03125 C 314.746094 129.046875 312.296875 131.5 309.277344 131.5 L 294.910156 131.5 Z M 294.910156 187.714844 L 309.277344 187.714844 C 312.296875 187.714844 314.746094 190.167969 314.746094 193.183594 C 314.746094 196.203125 312.296875 198.652344 309.277344 198.652344 L 294.910156 198.652344 Z M 294.910156 254.871094 L 309.277344 254.871094 C 312.296875 254.871094 314.746094 257.320312 314.746094 260.339844 C 314.746094 263.359375 312.296875 265.808594 309.277344 265.808594 L 294.910156 265.808594 Z M 253.742188 304.128906 L 253.742188 314.964844 C 253.742188 317.984375 251.292969 320.433594 248.273438 320.433594 C 245.253906 320.433594 242.804688 317.984375 242.804688 314.964844 L 242.804688 304.128906 Z M 186.585938 304.128906 L 186.585938 314.964844 C 186.585938 317.984375 184.136719 320.433594 181.117188 320.433594 C 178.101562 320.433594 175.648438 317.984375 175.648438 314.964844 L 175.648438 304.128906 Z M 119.433594 304.128906 L 119.433594 314.964844 C 119.433594 317.984375 116.980469 320.433594 113.964844 320.433594 C 110.945312 320.433594 108.496094 317.984375 108.496094 314.964844 L 108.496094 304.128906 Z M 66.640625 265.808594 L 59.339844 265.808594 C 56.320312 265.808594 53.871094 263.359375 53.871094 260.339844 C 53.871094 257.320312 56.320312 254.871094 59.339844 254.871094 L 66.640625 254.871094 Z M 279.332031 86.796875 C 281.894531 86.796875 283.972656 88.875 283.972656 91.4375 L 283.972656 288.550781 C 283.972656 291.113281 281.894531 293.191406 279.332031 293.191406 L 82.21875 293.191406 C 79.65625 293.191406 77.578125 291.113281 77.578125 288.550781 L 77.578125 91.4375 C 77.578125 88.875 79.65625 86.796875 82.21875 86.796875 Z M 190.585938 259.660156 L 190.585938 201.917969 L 170.972656 201.917969 L 170.972656 259.660156 Z M 160.035156 259.660156 L 160.035156 196.449219 C 160.035156 193.429688 162.484375 190.980469 165.503906 190.980469 L 196.054688 190.980469 C 199.074219 190.980469 201.523438 193.429688 201.523438 196.449219 L 201.523438 259.660156 L 222.132812 259.660156 C 225.675781 259.660156 228.539062 256.796875 228.539062 253.257812 L 228.539062 190.59375 L 180.777344 151.871094 L 133.011719 190.597656 L 133.011719 253.257812 C 133.011719 256.796875 135.882812 259.660156 139.421875 259.660156 Z M 111.269531 174.488281 L 120.890625 186.347656 L 180.777344 137.789062 L 240.667969 186.347656 L 250.28125 174.488281 L 185.671875 122.105469 C 182.921875 119.804688 178.84375 119.695312 175.960938 122.042969 Z M 111.269531 174.488281 " fill-opacity="1" fill-rule="evenodd"/></g><g clip-path="url(#4b630a466c)"><g clip-path="url(#1471b02108)"><path fill="#ff0000" d="M 276.125 187.144531 C 275.121094 188.792969 273.414062 189.765625 271.730469 190.707031 C 272.441406 191.738281 272.417969 193.121094 272.097656 194.335938 C 271.78125 195.546875 271.203125 196.679688 270.882812 197.890625 C 270.558594 199.105469 270.640625 200.707031 271.34375 201.742188 C 270.378906 201.78125 269.566406 202.558594 269.171875 203.449219 C 268.78125 204.339844 268.71875 205.324219 268.632812 206.292969 C 268.550781 207.261719 268.421875 208.261719 267.917969 209.085938 L 267.9375 209.09375 C 269.328125 209.644531 270.773438 210.230469 271.757812 211.359375 C 272.042969 211.691406 272.289062 212.066406 272.4375 212.472656 C 272.78125 213.410156 272.640625 214.472656 272.257812 215.386719 C 271.871094 216.308594 271.261719 217.113281 270.664062 217.910156 C 271.445312 218.683594 272.722656 219.558594 273.078125 220.601562 C 273.300781 221.269531 273.324219 221.988281 273.421875 222.683594 C 273.765625 225.148438 275.078125 227.46875 274.992188 229.960938 L 274.992188 229.964844 C 274.988281 230.222656 274.800781 230.433594 274.582031 230.566406 C 274.363281 230.695312 274.121094 230.769531 273.898438 230.882812 C 273.121094 231.277344 272.710938 232.15625 272.546875 233.015625 C 272.386719 233.875 272.414062 234.757812 272.230469 235.613281 C 271.863281 237.347656 270.53125 238.757812 269.375 240.113281 C 270.003906 240.902344 270.644531 241.703125 271.003906 242.644531 C 271.363281 243.585938 271.402344 244.707031 270.867188 245.558594 C 270.210938 246.605469 268.636719 247.101562 267.445312 247.414062 C 268.324219 248.269531 269.253906 249.210938 269.429688 250.421875 C 269.550781 251.265625 269.289062 252.125 269.398438 252.96875 C 269.492188 253.695312 269.863281 254.367188 270.335938 254.921875 C 270.808594 255.480469 271.386719 255.949219 271.953125 256.410156 C 270.921875 257.957031 271.027344 260.167969 271.511719 261.960938 C 271.996094 263.757812 272.851562 265.433594 273.328125 267.230469 C 273.933594 269.527344 273.894531 271.988281 273.21875 274.261719 C 270.132812 274.992188 266.558594 275 263.558594 273.972656 C 262.179688 273.5 260.855469 272.851562 259.429688 272.542969 C 258.003906 272.234375 256.289062 272.285156 255.128906 273.164062 C 254.597656 272.289062 253.78125 271.589844 252.835938 271.210938 C 251.738281 270.769531 250.519531 270.753906 249.351562 270.566406 C 248.179688 270.378906 246.878906 269.875 246.21875 268.890625 C 245.9375 270.125 245.359375 271.289062 244.542969 272.257812 C 244.253906 272.601562 243.898438 272.9375 243.453125 273.007812 C 243.113281 273.054688 242.78125 272.9375 242.460938 272.816406 C 241.265625 272.347656 240.085938 271.628906 239.035156 270.890625 C 238.410156 270.859375 237.847656 271.261719 237.417969 271.710938 C 236.984375 272.160156 236.609375 272.683594 236.085938 273.015625 C 234.738281 273.863281 232.90625 273.203125 231.421875 273.78125 C 230.207031 274.253906 229.175781 275.402344 228.511719 276.527344 C 228.085938 276.164062 227.511719 276.039062 226.957031 275.992188 C 226.398438 275.945312 225.835938 275.964844 225.292969 275.839844 C 224.476562 275.660156 223.757812 275.175781 222.960938 274.921875 C 221.832031 274.554688 220.59375 274.664062 219.472656 274.296875 C 218.195312 273.878906 217.199219 272.890625 216.25 271.941406 C 215.070312 272.824219 214.523438 273.023438 213.148438 273.566406 C 212.597656 273.785156 212 273.976562 211.421875 273.839844 C 210.945312 273.71875 210.550781 273.386719 210.199219 273.039062 C 209.175781 272.019531 208.347656 270.707031 207.777344 269.375 C 206.277344 270.144531 204.414062 269.574219 202.808594 270.082031 C 201.683594 270.441406 200.679688 271.394531 200.289062 272.511719 C 199.476562 271.738281 198.183594 271.734375 197.109375 272.066406 C 196.039062 272.398438 195.070312 273.007812 194 273.339844 C 192.546875 273.789062 190.933594 273.695312 189.546875 273.078125 L 189.550781 272.777344 C 189.027344 274.773438 187.59375 276.515625 185.738281 277.417969 C 185.214844 277.671875 184.632812 277.863281 184.058594 277.777344 C 183.574219 277.699219 183.140625 277.433594 182.746094 277.144531 C 181.296875 276.109375 180.058594 274.773438 179.132812 273.242188 C 177.484375 273.523438 175.800781 273.804688 174.265625 273.140625 C 173.480469 272.800781 172.800781 272.234375 172 271.9375 C 170.742188 271.472656 169.230469 271.777344 168.242188 272.679688 C 168.042969 271.71875 167.21875 270.917969 166.324219 270.519531 C 165.421875 270.117188 164.429688 270.007812 163.453125 269.902344 C 162.472656 269.800781 161.480469 269.6875 160.585938 269.273438 C 160.429688 270.703125 159.855469 271.804688 158.890625 272.867188 C 158.5 273.300781 158.027344 273.695312 157.453125 273.785156 C 157.085938 273.84375 156.703125 273.761719 156.347656 273.664062 C 155.035156 273.3125 153.792969 272.71875 152.695312 271.921875 C 150.902344 272.535156 149.84375 274.410156 147.996094 274.820312 C 147.128906 275.011719 146.203125 274.839844 145.332031 275.035156 C 144.652344 275.183594 144.042969 275.542969 143.371094 275.742188 C 142.191406 276.089844 140.847656 275.929688 139.792969 276.558594 C 139.234375 275.292969 137.878906 274.265625 136.550781 273.882812 C 135.769531 273.660156 134.945312 273.644531 134.148438 273.472656 C 132.628906 273.152344 130.96875 271.980469 130.050781 270.734375 C 129.367188 271.363281 129.242188 271.480469 128.4375 271.949219 C 127.628906 272.417969 126.683594 272.695312 125.769531 272.558594 C 124.933594 272.433594 124.167969 271.953125 123.628906 271.304688 C 123.089844 270.65625 122.652344 269.574219 122.542969 268.734375 C 121.839844 269.859375 120.550781 270.550781 119.234375 270.683594 C 118.335938 270.777344 117.417969 270.632812 116.53125 270.800781 C 115.289062 271.035156 113.972656 272.09375 113.449219 273.242188 C 112.351562 272.433594 110.875 272.328125 109.519531 272.515625 C 107.339844 272.816406 105.308594 273.769531 103.1875 274.335938 C 100.738281 274.992188 97.3125 275.007812 95.378906 274.265625 C 94.695312 271.992188 94.660156 269.53125 95.269531 267.234375 C 95.746094 265.441406 96.605469 263.761719 97.085938 261.964844 C 97.570312 260.171875 97.679688 257.960938 96.644531 256.414062 C 97.214844 255.953125 97.789062 255.488281 98.261719 254.925781 C 98.734375 254.363281 99.105469 253.699219 99.195312 252.96875 C 99.304688 252.128906 99.042969 251.269531 99.164062 250.425781 C 99.34375 249.214844 100.273438 248.273438 101.152344 247.417969 C 99.957031 247.113281 98.386719 246.609375 97.726562 245.5625 C 97.191406 244.707031 97.234375 243.589844 97.59375 242.648438 C 97.953125 241.707031 98.59375 240.902344 99.21875 240.117188 C 98.066406 238.761719 96.734375 237.359375 96.363281 235.613281 C 96.183594 234.761719 96.214844 233.878906 96.046875 233.019531 C 95.886719 232.160156 95.472656 231.28125 94.699219 230.886719 C 94.476562 230.773438 94.226562 230.699219 94.011719 230.570312 C 93.792969 230.4375 93.605469 230.226562 93.601562 229.96875 L 93.601562 229.964844 C 93.515625 227.480469 94.824219 225.152344 95.171875 222.6875 C 95.273438 221.992188 95.292969 221.273438 95.515625 220.605469 C 95.871094 219.5625 97.144531 218.691406 97.929688 217.914062 C 97.328125 217.117188 96.722656 216.308594 96.339844 215.390625 C 95.957031 214.46875 95.808594 213.40625 96.15625 212.476562 C 96.308594 212.066406 96.550781 211.691406 96.839844 211.363281 C 97.816406 210.234375 99.269531 209.640625 100.65625 209.097656 L 100.679688 209.089844 C 100.175781 208.257812 100.050781 207.265625 99.960938 206.296875 C 99.878906 205.328125 99.816406 204.335938 99.425781 203.453125 C 99.035156 202.566406 98.222656 201.789062 97.25 201.746094 C 97.953125 200.703125 98.035156 199.105469 97.714844 197.894531 C 97.390625 196.683594 96.8125 195.550781 96.496094 194.339844 C 96.179688 193.125 96.152344 191.742188 96.863281 190.710938 C 95.179688 189.769531 93.472656 188.796875 92.46875 187.148438 C 92.089844 186.53125 91.828125 185.792969 91.960938 185.078125 C 92.058594 184.539062 92.371094 184.058594 92.707031 183.621094 C 93.257812 182.910156 93.894531 182.265625 94.601562 181.703125 C 95.074219 181.328125 95.585938 180.980469 95.960938 180.503906 C 96.335938 180.03125 96.558594 179.386719 96.355469 178.816406 C 96.246094 177.863281 96.277344 176.71875 96.578125 175.804688 C 96.917969 174.777344 97.671875 173.925781 97.976562 172.890625 C 98.332031 171.710938 98.0625 170.316406 97.25 169.390625 C 97.816406 169.148438 98.40625 168.894531 98.8125 168.429688 C 99.175781 168.015625 99.359375 167.472656 99.496094 166.9375 C 99.894531 165.4375 100.027344 163.882812 100.164062 162.34375 C 100.179688 162.195312 100.191406 162.027344 100.105469 161.898438 C 100.027344 161.765625 99.53125 161.636719 99.433594 161.757812 C 97.726562 161.347656 96.328125 159.863281 96.019531 158.132812 C 95.707031 156.398438 96.507812 154.527344 97.96875 153.546875 C 96.691406 152.746094 95.796875 151.34375 95.339844 149.90625 C 94.882812 148.46875 94.738281 146.957031 94.507812 145.46875 C 94.28125 143.980469 93.945312 142.472656 93.171875 141.179688 C 94.386719 140.273438 95.691406 139.390625 96.089844 137.992188 C 96.386719 136.972656 96.320312 135.875 96.5625 134.839844 C 96.894531 133.410156 97.839844 132.136719 99.101562 131.394531 C 98.480469 130.605469 97.863281 129.582031 97.554688 128.625 C 97.242188 127.667969 97.234375 126.570312 97.757812 125.707031 C 98.410156 124.609375 99.875 124.046875 101.121094 123.753906 L 101.171875 123.753906 C 100.554688 123.296875 100.578125 123.328125 100.132812 122.707031 C 99.59375 121.945312 99.359375 121.003906 99.21875 120.078125 C 99.078125 119.152344 99.011719 118.210938 98.753906 117.3125 C 98.773438 116.671875 98.429688 115.910156 97.894531 115.5625 C 97.542969 115.335938 97.078125 115.1875 96.90625 114.804688 C 96.796875 114.554688 96.847656 114.257812 96.988281 114.027344 C 97.128906 113.800781 97.382812 113.585938 97.625 113.457031 C 97.546875 110.890625 96.5 108.46875 95.839844 105.984375 C 95.023438 102.941406 94.773438 99.753906 95.105469 96.621094 C 97.046875 95.878906 100.75 96.058594 103.203125 96.71875 C 105.324219 97.285156 107.351562 98.234375 109.53125 98.539062 C 110.886719 98.726562 112.363281 98.621094 113.464844 97.808594 C 113.988281 98.964844 115.300781 100.027344 116.546875 100.253906 C 117.4375 100.421875 118.351562 100.277344 119.25 100.367188 C 120.570312 100.503906 121.855469 101.195312 122.558594 102.320312 C 122.671875 101.480469 123.109375 100.40625 123.644531 99.75 C 124.1875 99.097656 124.949219 98.625 125.785156 98.496094 C 126.707031 98.355469 127.644531 98.636719 128.453125 99.105469 C 129.257812 99.566406 129.382812 99.6875 130.066406 100.320312 C 130.992188 99.074219 132.644531 97.902344 134.164062 97.578125 C 134.960938 97.410156 135.785156 97.390625 136.566406 97.167969 C 137.898438 96.789062 139.25 95.765625 139.808594 94.496094 C 140.867188 95.125 142.207031 94.957031 143.386719 95.3125 C 144.054688 95.507812 144.667969 95.867188 145.347656 96.019531 C 146.222656 96.210938 147.144531 96.039062 148.011719 96.230469 C 149.859375 96.644531 150.917969 98.523438 152.707031 99.128906 C 153.808594 98.335938 155.050781 97.734375 156.359375 97.386719 C 156.726562 97.289062 157.101562 97.210938 157.46875 97.269531 C 158.042969 97.355469 158.519531 97.753906 158.90625 98.183594 C 159.867188 99.25 160.445312 100.347656 160.601562 101.777344 C 161.496094 101.367188 162.488281 101.253906 163.464844 101.148438 C 164.445312 101.042969 165.4375 100.933594 166.339844 100.535156 C 167.238281 100.132812 168.058594 99.332031 168.257812 98.371094 C 169.246094 99.28125 170.753906 99.578125 172.015625 99.113281 C 172.820312 98.820312 173.496094 98.25 174.28125 97.914062 C 175.816406 97.253906 177.496094 97.53125 179.148438 97.808594 C 180.074219 96.277344 181.308594 94.949219 182.761719 93.90625 C 183.164062 93.621094 183.589844 93.355469 184.074219 93.277344 C 184.652344 93.1875 185.234375 93.382812 185.753906 93.636719 C 187.613281 94.535156 189.042969 96.277344 189.566406 98.277344 L 189.5625 97.976562 C 190.949219 97.355469 192.5625 97.261719 194.015625 97.710938 C 195.085938 98.042969 196.054688 98.652344 197.125 98.984375 C 198.199219 99.320312 199.488281 99.308594 200.304688 98.539062 C 200.691406 99.652344 201.695312 100.609375 202.820312 100.96875 C 204.429688 101.476562 206.292969 100.90625 207.789062 101.675781 C 208.363281 100.34375 209.191406 99.039062 210.214844 98.015625 C 210.5625 97.664062 210.960938 97.332031 211.4375 97.214844 C 212.015625 97.074219 212.613281 97.265625 213.164062 97.484375 C 214.53125 98.03125 215.085938 98.230469 216.265625 99.113281 C 217.210938 98.160156 218.207031 97.175781 219.484375 96.753906 C 220.609375 96.386719 221.851562 96.496094 222.976562 96.132812 C 223.773438 95.878906 224.488281 95.394531 225.308594 95.210938 C 225.851562 95.089844 226.414062 95.113281 226.972656 95.058594 C 227.527344 95.015625 228.101562 94.882812 228.527344 94.523438 C 229.191406 95.648438 230.214844 96.804688 231.4375 97.273438 C 232.925781 97.84375 234.757812 97.183594 236.101562 98.035156 C 236.628906 98.367188 237 98.894531 237.429688 99.339844 C 237.863281 99.789062 238.425781 100.195312 239.050781 100.164062 C 240.097656 99.429688 241.285156 98.710938 242.476562 98.238281 C 242.796875 98.113281 243.128906 98 243.464844 98.046875 C 243.914062 98.109375 244.265625 98.445312 244.558594 98.796875 C 245.375 99.761719 245.953125 100.929688 246.234375 102.160156 C 246.894531 101.179688 248.195312 100.671875 249.363281 100.484375 C 250.535156 100.296875 251.746094 100.28125 252.851562 99.839844 C 253.796875 99.460938 254.613281 98.765625 255.144531 97.890625 C 256.304688 98.773438 258.019531 98.820312 259.445312 98.507812 C 260.871094 98.203125 262.195312 97.546875 263.570312 97.078125 C 266.574219 96.054688 270.429688 95.886719 273.519531 96.621094 C 273.851562 99.75 273.601562 102.941406 272.785156 105.984375 C 272.121094 108.464844 271.074219 110.882812 271 113.453125 C 271.242188 113.578125 271.492188 113.792969 271.636719 114.027344 C 271.78125 114.261719 271.828125 114.558594 271.71875 114.800781 C 271.546875 115.191406 271.085938 115.332031 270.730469 115.5625 C 270.195312 115.910156 269.851562 116.667969 269.871094 117.308594 C 269.617188 118.207031 269.554688 119.148438 269.410156 120.074219 C 269.261719 121.003906 269.035156 121.9375 268.492188 122.703125 C 268.046875 123.328125 268.070312 123.296875 267.453125 123.753906 L 267.503906 123.753906 C 268.753906 124.042969 270.207031 124.605469 270.871094 125.703125 C 271.382812 126.566406 271.382812 127.664062 271.074219 128.621094 C 270.761719 129.578125 270.148438 130.601562 269.523438 131.394531 C 270.785156 132.132812 271.730469 133.410156 272.0625 134.835938 C 272.300781 135.871094 272.238281 136.964844 272.535156 137.988281 C 272.941406 139.382812 274.242188 140.269531 275.453125 141.179688 C 274.671875 142.46875 274.34375 143.976562 274.117188 145.464844 C 273.886719 146.953125 273.742188 148.46875 273.285156 149.902344 C 272.824219 151.339844 271.9375 152.742188 270.65625 153.546875 C 272.121094 154.523438 272.914062 156.402344 272.609375 158.128906 C 272.300781 159.855469 270.902344 161.34375 269.191406 161.753906 C 269.097656 161.636719 268.597656 161.765625 268.519531 161.894531 C 268.441406 162.027344 268.449219 162.1875 268.460938 162.34375 C 268.597656 163.886719 268.738281 165.4375 269.128906 166.933594 C 269.269531 167.472656 269.449219 168.011719 269.8125 168.429688 C 270.21875 168.890625 270.808594 169.148438 271.375 169.386719 C 270.5625 170.3125 270.292969 171.707031 270.648438 172.886719 C 270.953125 173.921875 271.710938 174.777344 272.046875 175.800781 C 272.347656 176.710938 272.378906 177.855469 272.269531 178.8125 C 272.066406 179.378906 272.292969 180.03125 272.664062 180.503906 C 273.039062 180.976562 273.550781 181.320312 274.023438 181.699219 C 274.726562 182.261719 275.363281 182.90625 275.917969 183.621094 C 276.253906 184.054688 276.566406 184.535156 276.667969 185.078125 C 276.773438 185.789062 276.507812 186.519531 276.125 187.144531 Z M 276.125 187.144531 " fill-opacity="1" fill-rule="nonzero"/></g></g><g clip-path="url(#01e933053e)"><g clip-path="url(#b050b82856)"><path fill="#000000" d="M 90.160156 91.410156 L 278.410156 91.410156 L 278.410156 279.660156 L 90.160156 279.660156 Z M 90.160156 91.410156 " fill-opacity="1" fill-rule="nonzero"/></g></g><g fill="#ffffff" fill-opacity="1"><g transform="translate(97.151482, 212.776524)"><g><path d="M 12.03125 0.390625 C 8.15625 0.390625 5.351562 -0.566406 3.625 -2.484375 C 1.90625 -4.410156 1.046875 -7.507812 1.046875 -11.78125 L 1.046875 -15.96875 L 9.453125 -15.96875 L 9.453125 -10.640625 C 9.453125 -8.515625 10.128906 -7.453125 11.484375 -7.453125 C 12.242188 -7.453125 12.773438 -7.675781 13.078125 -8.125 C 13.378906 -8.570312 13.53125 -9.328125 13.53125 -10.390625 C 13.53125 -11.785156 13.363281 -12.9375 13.03125 -13.84375 C 12.695312 -14.757812 12.269531 -15.523438 11.75 -16.140625 C 11.238281 -16.753906 10.320312 -17.707031 9 -19 L 5.328125 -22.671875 C 2.472656 -25.460938 1.046875 -28.546875 1.046875 -31.921875 C 1.046875 -35.578125 1.878906 -38.359375 3.546875 -40.265625 C 5.222656 -42.171875 7.671875 -43.125 10.890625 -43.125 C 14.734375 -43.125 17.5 -42.101562 19.1875 -40.0625 C 20.882812 -38.019531 21.734375 -34.828125 21.734375 -30.484375 L 13.03125 -30.484375 L 12.984375 -33.421875 C 12.984375 -33.984375 12.820312 -34.429688 12.5 -34.765625 C 12.1875 -35.097656 11.75 -35.265625 11.1875 -35.265625 C 10.53125 -35.265625 10.035156 -35.082031 9.703125 -34.71875 C 9.367188 -34.351562 9.203125 -33.851562 9.203125 -33.21875 C 9.203125 -31.832031 10 -30.390625 11.59375 -28.890625 L 16.5625 -24.125 C 17.71875 -23 18.675781 -21.925781 19.4375 -20.90625 C 20.207031 -19.894531 20.820312 -18.703125 21.28125 -17.328125 C 21.75 -15.953125 21.984375 -14.320312 21.984375 -12.4375 C 21.984375 -8.226562 21.210938 -5.035156 19.671875 -2.859375 C 18.128906 -0.691406 15.582031 0.390625 12.03125 0.390625 Z M 12.03125 0.390625 "/></g></g></g><g fill="#ffffff" fill-opacity="1"><g transform="translate(120.073607, 212.776524)"><g><path d="M 1.34375 0 L 1.34375 -7.265625 L 10.046875 -7.265625 L 10.046875 0 Z M 1.34375 0 "/></g></g></g><g fill="#ffffff" fill-opacity="1"><g transform="translate(131.460089, 212.776524)"><g><path d="M 1.890625 -42.71875 L 13.171875 -42.71875 C 16.585938 -42.71875 19.023438 -41.613281 20.484375 -39.40625 C 21.941406 -37.207031 22.671875 -33.984375 22.671875 -29.734375 C 22.671875 -25.492188 22.023438 -22.296875 20.734375 -20.140625 C 19.441406 -17.984375 17.125 -16.90625 13.78125 -16.90625 L 10.296875 -16.90625 L 10.296875 0 L 1.890625 0 Z M 10.796875 -24.625 C 11.816406 -24.625 12.566406 -24.8125 13.046875 -25.1875 C 13.535156 -25.570312 13.851562 -26.117188 14 -26.828125 C 14.144531 -27.546875 14.21875 -28.566406 14.21875 -29.890625 C 14.21875 -31.679688 14.019531 -32.972656 13.625 -33.765625 C 13.226562 -34.566406 12.429688 -34.96875 11.234375 -34.96875 L 10.296875 -34.96875 L 10.296875 -24.625 Z M 10.796875 -24.625 "/></g></g></g><g fill="#ffffff" fill-opacity="1"><g transform="translate(154.936634, 212.776524)"><g/></g></g><g fill="#ffffff" fill-opacity="1"><g transform="translate(166.571727, 212.776524)"><g/></g></g><g fill="#ffffff" fill-opacity="1"><g transform="translate(178.20682, 212.776524)"><g/></g></g><g fill="#ffffff" fill-opacity="1"><g transform="translate(189.841913, 212.776524)"><g/></g></g><g fill="#ffffff" fill-opacity="1"><g transform="translate(201.483506, 212.776524)"><g><path d="M 1.890625 -42.71875 L 15.015625 -42.71875 C 17.109375 -42.71875 18.722656 -42.242188 19.859375 -41.296875 C 21.003906 -40.359375 21.773438 -39.035156 22.171875 -37.328125 C 22.578125 -35.617188 22.78125 -33.4375 22.78125 -30.78125 C 22.78125 -28.363281 22.460938 -26.472656 21.828125 -25.109375 C 21.203125 -23.753906 20.109375 -22.8125 18.546875 -22.28125 C 19.835938 -22.019531 20.773438 -21.375 21.359375 -20.34375 C 21.941406 -19.3125 22.234375 -17.914062 22.234375 -16.15625 L 22.125 0 L 13.78125 0 L 13.78125 -16.703125 C 13.78125 -17.898438 13.546875 -18.664062 13.078125 -19 C 12.617188 -19.332031 11.773438 -19.5 10.546875 -19.5 L 10.546875 0 L 1.890625 0 Z M 12.625 -26.90625 C 13.820312 -26.90625 14.421875 -28.195312 14.421875 -30.78125 C 14.421875 -31.90625 14.367188 -32.75 14.265625 -33.3125 C 14.171875 -33.882812 13.988281 -34.273438 13.71875 -34.484375 C 13.457031 -34.703125 13.078125 -34.8125 12.578125 -34.8125 L 10.59375 -34.8125 L 10.59375 -26.90625 Z M 12.625 -26.90625 "/></g></g></g><g fill="#ffffff" fill-opacity="1"><g transform="translate(225.20119, 212.776524)"><g><path d="M 1.34375 0 L 1.34375 -7.265625 L 10.046875 -7.265625 L 10.046875 0 Z M 1.34375 0 "/></g></g></g><g fill="#ffffff" fill-opacity="1"><g transform="translate(236.587672, 212.776524)"><g><path d="M 1.890625 0 L 1.890625 -42.71875 L 10.34375 -42.71875 L 10.34375 -25.609375 L 14.328125 -42.71875 L 22.921875 -42.71875 L 18.15625 -23.171875 L 23.921875 0 L 15.0625 0 L 10.390625 -20.6875 L 10.390625 0 Z M 1.890625 0 "/></g></g></g><g fill="#ffffff" fill-opacity="1"><g transform="translate(260.056744, 212.776524)"><g><path d="M 1.34375 0 L 1.34375 -7.265625 L 10.046875 -7.265625 L 10.046875 0 Z M 1.34375 0 "/></g></g></g><g fill="#ffffff" fill-opacity="1"><g transform="translate(153.740721, 230.74389)"><g><path d="M 1.46875 0 L 9.5625 -83.8125 L 37.953125 -83.8125 L 45.953125 0 L 30.046875 0 L 28.875 -13.5625 L 18.734375 -13.5625 L 17.75 0 Z M 20 -26.921875 L 27.609375 -26.921875 L 23.90625 -69.5625 L 23.125 -69.5625 Z M 20 -26.921875 "/></g></g></g><g clip-path="url(#924a8cd202)"><g clip-path="url(#9832b29b80)"><path fill="#000000" d="M 172.394531 156.285156 L 182 156.285156 L 182 206.664062 L 172.394531 206.664062 Z M 172.394531 156.285156 " fill-opacity="1" fill-rule="nonzero"/></g></g><g fill="#ffffff" fill-opacity="1"><g transform="translate(100.502868, 136.5913)"><g><path d="M 7.015625 0.1875 C 5.828125 0.1875 4.78125 -0.0546875 3.875 -0.546875 C 2.976562 -1.046875 2.273438 -1.785156 1.765625 -2.765625 C 1.265625 -3.753906 1.015625 -4.96875 1.015625 -6.40625 C 1.015625 -7.851562 1.265625 -9.066406 1.765625 -10.046875 C 2.273438 -11.035156 2.976562 -11.773438 3.875 -12.265625 C 4.78125 -12.765625 5.828125 -13.015625 7.015625 -13.015625 C 8.242188 -13.015625 9.289062 -12.769531 10.15625 -12.28125 C 11.019531 -11.800781 11.632812 -11.066406 12 -10.078125 L 10.15625 -8.953125 L 9.9375 -8.953125 C 9.65625 -9.617188 9.28125 -10.097656 8.8125 -10.390625 C 8.34375 -10.679688 7.742188 -10.828125 7.015625 -10.828125 C 5.941406 -10.828125 5.109375 -10.472656 4.515625 -9.765625 C 3.921875 -9.066406 3.625 -7.945312 3.625 -6.40625 C 3.625 -4.882812 3.921875 -3.769531 4.515625 -3.0625 C 5.109375 -2.363281 5.941406 -2.015625 7.015625 -2.015625 C 8.679688 -2.015625 9.703125 -2.820312 10.078125 -4.4375 L 10.296875 -4.4375 L 12.15625 -3.46875 C 11.8125 -2.25 11.210938 -1.332031 10.359375 -0.71875 C 9.515625 -0.113281 8.398438 0.1875 7.015625 0.1875 Z M 7.015625 0.1875 "/></g></g></g><g fill="#ffffff" fill-opacity="1"><g transform="translate(113.081155, 136.5913)"><g><path d="M 7.03125 0 L 4.5 0 L 4.5 -5.03125 L 0.0625 -12.828125 L 2.78125 -12.828125 L 5.71875 -7.78125 L 5.9375 -7.78125 L 8.796875 -12.828125 L 11.453125 -12.828125 L 7.03125 -5.03125 Z M 7.03125 0 "/></g></g></g><g fill="#ffffff" fill-opacity="1"><g transform="translate(124.598098, 136.5913)"><g><path d="M 1.671875 0 L 1.671875 -12.828125 L 7.140625 -12.828125 C 7.929688 -12.828125 8.597656 -12.703125 9.140625 -12.453125 C 9.691406 -12.203125 10.109375 -11.847656 10.390625 -11.390625 C 10.671875 -10.929688 10.8125 -10.390625 10.8125 -9.765625 C 10.8125 -9.203125 10.671875 -8.703125 10.390625 -8.265625 C 10.117188 -7.828125 9.726562 -7.476562 9.21875 -7.21875 L 9.21875 -7.03125 C 10.019531 -6.820312 10.640625 -6.4375 11.078125 -5.875 C 11.515625 -5.320312 11.734375 -4.644531 11.734375 -3.84375 C 11.734375 -2.613281 11.363281 -1.664062 10.625 -1 C 9.882812 -0.332031 8.785156 0 7.328125 0 Z M 6.609375 -7.71875 C 7.796875 -7.71875 8.390625 -8.25 8.390625 -9.3125 C 8.390625 -9.851562 8.242188 -10.253906 7.953125 -10.515625 C 7.660156 -10.785156 7.210938 -10.921875 6.609375 -10.921875 L 4.203125 -10.921875 L 4.203125 -7.71875 Z M 7.078125 -2.015625 C 8.472656 -2.015625 9.171875 -2.644531 9.171875 -3.90625 C 9.171875 -5.1875 8.472656 -5.828125 7.078125 -5.828125 L 4.203125 -5.828125 L 4.203125 -2.015625 Z M 7.078125 -2.015625 "/></g></g></g><g fill="#ffffff" fill-opacity="1"><g transform="translate(137.141298, 136.5913)"><g><path d="M 4.203125 -5.625 L 4.203125 -2.125 L 10.328125 -2.125 L 10.328125 0 L 1.671875 0 L 1.671875 -12.828125 L 10.1875 -12.828125 L 10.1875 -10.703125 L 4.203125 -10.703125 L 4.203125 -7.703125 L 9.4375 -7.703125 L 9.4375 -5.625 Z M 4.203125 -5.625 "/></g></g></g><g fill="#ffffff" fill-opacity="1"><g transform="translate(148.167038, 136.5913)"><g><path d="M 1.671875 0 L 1.671875 -12.828125 L 6.8125 -12.828125 C 8.144531 -12.828125 9.144531 -12.519531 9.8125 -11.90625 C 10.488281 -11.300781 10.828125 -10.457031 10.828125 -9.375 C 10.828125 -8.601562 10.628906 -7.96875 10.234375 -7.46875 C 9.847656 -6.96875 9.257812 -6.585938 8.46875 -6.328125 L 8.46875 -6.140625 C 8.875 -5.960938 9.203125 -5.703125 9.453125 -5.359375 C 9.703125 -5.015625 9.9375 -4.503906 10.15625 -3.828125 L 11.4375 0 L 8.828125 0 L 7.578125 -3.828125 C 7.453125 -4.210938 7.304688 -4.507812 7.140625 -4.71875 C 6.984375 -4.9375 6.78125 -5.09375 6.53125 -5.1875 C 6.28125 -5.289062 5.957031 -5.34375 5.5625 -5.34375 L 4.203125 -5.34375 L 4.203125 0 Z M 6.515625 -7.359375 C 7.742188 -7.359375 8.359375 -7.929688 8.359375 -9.078125 C 8.359375 -10.234375 7.742188 -10.8125 6.515625 -10.8125 L 4.203125 -10.8125 L 4.203125 -7.359375 Z M 6.515625 -7.359375 "/></g></g></g><g fill="#ffffff" fill-opacity="1"><g transform="translate(160.157641, 136.5913)"><g/></g></g><g fill="#ffffff" fill-opacity="1"><g transform="translate(164.394265, 136.5913)"><g><path d="M 5.6875 0.1875 C 4.800781 0.1875 4.007812 0.078125 3.3125 -0.140625 C 2.613281 -0.359375 2.035156 -0.644531 1.578125 -1 C 1.117188 -1.363281 0.765625 -1.757812 0.515625 -2.1875 L 1.90625 -3.890625 L 2.125 -3.890625 C 2.519531 -3.316406 3.015625 -2.859375 3.609375 -2.515625 C 4.203125 -2.179688 4.894531 -2.015625 5.6875 -2.015625 C 6.363281 -2.015625 6.875 -2.15625 7.21875 -2.4375 C 7.5625 -2.726562 7.734375 -3.125 7.734375 -3.625 C 7.734375 -3.925781 7.675781 -4.175781 7.5625 -4.375 C 7.457031 -4.582031 7.273438 -4.757812 7.015625 -4.90625 C 6.765625 -5.050781 6.414062 -5.179688 5.96875 -5.296875 L 4.328125 -5.671875 C 3.171875 -5.929688 2.3125 -6.363281 1.75 -6.96875 C 1.1875 -7.582031 0.90625 -8.378906 0.90625 -9.359375 C 0.90625 -10.085938 1.082031 -10.722656 1.4375 -11.265625 C 1.800781 -11.816406 2.332031 -12.242188 3.03125 -12.546875 C 3.726562 -12.859375 4.554688 -13.015625 5.515625 -13.015625 C 6.503906 -13.015625 7.347656 -12.882812 8.046875 -12.625 C 8.753906 -12.363281 9.351562 -11.960938 9.84375 -11.421875 L 8.59375 -9.703125 L 8.375 -9.703125 C 8.007812 -10.085938 7.59375 -10.375 7.125 -10.5625 C 6.65625 -10.75 6.117188 -10.84375 5.515625 -10.84375 C 4.816406 -10.84375 4.285156 -10.71875 3.921875 -10.46875 C 3.566406 -10.226562 3.390625 -9.890625 3.390625 -9.453125 C 3.390625 -9.054688 3.515625 -8.738281 3.765625 -8.5 C 4.023438 -8.257812 4.46875 -8.070312 5.09375 -7.9375 L 6.765625 -7.578125 C 8.015625 -7.316406 8.921875 -6.867188 9.484375 -6.234375 C 10.046875 -5.609375 10.328125 -4.789062 10.328125 -3.78125 C 10.328125 -2.976562 10.15625 -2.28125 9.8125 -1.6875 C 9.46875 -1.09375 8.945312 -0.628906 8.25 -0.296875 C 7.550781 0.0234375 6.695312 0.1875 5.6875 0.1875 Z M 5.6875 0.1875 "/></g></g></g><g fill="#ffffff" fill-opacity="1"><g transform="translate(175.411229, 136.5913)"><g><path d="M 4.203125 -5.625 L 4.203125 -2.125 L 10.328125 -2.125 L 10.328125 0 L 1.671875 0 L 1.671875 -12.828125 L 10.1875 -12.828125 L 10.1875 -10.703125 L 4.203125 -10.703125 L 4.203125 -7.703125 L 9.4375 -7.703125 L 9.4375 -5.625 Z M 4.203125 -5.625 "/></g></g></g><g fill="#ffffff" fill-opacity="1"><g transform="translate(186.43697, 136.5913)"><g><path d="M 4.125 0 L 1.671875 0 L 1.671875 -12.828125 L 4.578125 -12.828125 L 9.71875 -4.5625 L 9.953125 -4.59375 L 9.953125 -12.828125 L 12.390625 -12.828125 L 12.390625 0 L 9.796875 0 L 4.34375 -8.828125 L 4.125 -8.796875 Z M 4.125 0 "/></g></g></g><g fill="#ffffff" fill-opacity="1"><g transform="translate(200.497639, 136.5913)"><g><path d="M 10.28125 -12.828125 L 10.28125 -10.6875 L 6.578125 -10.6875 L 6.578125 0 L 4.046875 0 L 4.046875 -10.6875 L 0.34375 -10.6875 L 0.34375 -12.828125 Z M 10.28125 -12.828125 "/></g></g></g><g fill="#ffffff" fill-opacity="1"><g transform="translate(211.128659, 136.5913)"><g><path d="M 4.203125 0 L 1.671875 0 L 1.671875 -12.828125 L 4.203125 -12.828125 Z M 4.203125 0 "/></g></g></g><g fill="#ffffff" fill-opacity="1"><g transform="translate(217.005543, 136.5913)"><g><path d="M 4.125 0 L 1.671875 0 L 1.671875 -12.828125 L 4.578125 -12.828125 L 9.71875 -4.5625 L 9.953125 -4.59375 L 9.953125 -12.828125 L 12.390625 -12.828125 L 12.390625 0 L 9.796875 0 L 4.34375 -8.828125 L 4.125 -8.796875 Z M 4.125 0 "/></g></g></g><g fill="#ffffff" fill-opacity="1"><g transform="translate(231.066212, 136.5913)"><g><path d="M 4.203125 -5.625 L 4.203125 -2.125 L 10.328125 -2.125 L 10.328125 0 L 1.671875 0 L 1.671875 -12.828125 L 10.1875 -12.828125 L 10.1875 -10.703125 L 4.203125 -10.703125 L 4.203125 -7.703125 L 9.4375 -7.703125 L 9.4375 -5.625 Z M 4.203125 -5.625 "/></g></g></g><g fill="#ffffff" fill-opacity="1"><g transform="translate(242.091952, 136.5913)"><g><path d="M 4.203125 -12.828125 L 4.203125 -2.125 L 9.96875 -2.125 L 9.96875 0 L 1.671875 0 L 1.671875 -12.828125 Z M 4.203125 -12.828125 "/></g></g></g><g fill="#ffffff" fill-opacity="1"><g transform="translate(252.477371, 136.5913)"><g><path d="M 5.6875 0.1875 C 4.800781 0.1875 4.007812 0.078125 3.3125 -0.140625 C 2.613281 -0.359375 2.035156 -0.644531 1.578125 -1 C 1.117188 -1.363281 0.765625 -1.757812 0.515625 -2.1875 L 1.90625 -3.890625 L 2.125 -3.890625 C 2.519531 -3.316406 3.015625 -2.859375 3.609375 -2.515625 C 4.203125 -2.179688 4.894531 -2.015625 5.6875 -2.015625 C 6.363281 -2.015625 6.875 -2.15625 7.21875 -2.4375 C 7.5625 -2.726562 7.734375 -3.125 7.734375 -3.625 C 7.734375 -3.925781 7.675781 -4.175781 7.5625 -4.375 C 7.457031 -4.582031 7.273438 -4.757812 7.015625 -4.90625 C 6.765625 -5.050781 6.414062 -5.179688 5.96875 -5.296875 L 4.328125 -5.671875 C 3.171875 -5.929688 2.3125 -6.363281 1.75 -6.96875 C 1.1875 -7.582031 0.90625 -8.378906 0.90625 -9.359375 C 0.90625 -10.085938 1.082031 -10.722656 1.4375 -11.265625 C 1.800781 -11.816406 2.332031 -12.242188 3.03125 -12.546875 C 3.726562 -12.859375 4.554688 -13.015625 5.515625 -13.015625 C 6.503906 -13.015625 7.347656 -12.882812 8.046875 -12.625 C 8.753906 -12.363281 9.351562 -11.960938 9.84375 -11.421875 L 8.59375 -9.703125 L 8.375 -9.703125 C 8.007812 -10.085938 7.59375 -10.375 7.125 -10.5625 C 6.65625 -10.75 6.117188 -10.84375 5.515625 -10.84375 C 4.816406 -10.84375 4.285156 -10.71875 3.921875 -10.46875 C 3.566406 -10.226562 3.390625 -9.890625 3.390625 -9.453125 C 3.390625 -9.054688 3.515625 -8.738281 3.765625 -8.5 C 4.023438 -8.257812 4.46875 -8.070312 5.09375 -7.9375 L 6.765625 -7.578125 C 8.015625 -7.316406 8.921875 -6.867188 9.484375 -6.234375 C 10.046875 -5.609375 10.328125 -4.789062 10.328125 -3.78125 C 10.328125 -2.976562 10.15625 -2.28125 9.8125 -1.6875 C 9.46875 -1.09375 8.945312 -0.628906 8.25 -0.296875 C 7.550781 0.0234375 6.695312 0.1875 5.6875 0.1875 Z M 5.6875 0.1875 "/></g></g></g></svg>