<svg xmlns="http://www.w3.org/2000/svg" xmlns:xlink="http://www.w3.org/1999/xlink" width="820" zoomAndPan="magnify" viewBox="0 0 615 233.999995" height="312" preserveAspectRatio="xMidYMid meet" version="1.0"><defs><g/></defs><rect x="-61.5" width="738" fill="#ffffff" y="-23.399999" height="280.799994" fill-opacity="1"/><rect x="-61.5" width="738" fill="#000000" y="-23.399999" height="280.799994" fill-opacity="1"/><g fill="#ff3131" fill-opacity="1"><g transform="translate(5.745916, 140.900017)"><g><path d="M 69.484375 -26.828125 L 69.484375 -18.796875 C 69.484375 -18.222656 69.46875 -17.664062 69.4375 -17.125 C 69.40625 -16.59375 69.359375 -16.070312 69.296875 -15.5625 L 76.359375 -15.5625 C 76.296875 -15.175781 76.25 -14.789062 76.21875 -14.40625 C 76.1875 -14.03125 76.140625 -13.648438 76.078125 -13.265625 L 63.375 -13.265625 C 62.800781 -10.085938 61.722656 -7.445312 60.140625 -5.34375 C 59.878906 -4.894531 59.5625 -4.484375 59.1875 -4.109375 L 70.734375 -4.109375 C 68.253906 -1.367188 64.722656 0 60.140625 0 L 16.984375 0 C 16.609375 0 16.066406 -0.171875 15.359375 -0.515625 C 14.660156 -0.867188 14.3125 -1.78125 14.3125 -3.25 L 14.3125 -4.109375 L 2.765625 -4.109375 L 2.765625 -10.875 C 2.765625 -11.894531 2.988281 -12.691406 3.4375 -13.265625 L 16.125 -13.265625 C 16.445312 -13.648438 16.8125 -13.890625 17.21875 -13.984375 C 17.632812 -14.078125 17.972656 -14.125 18.234375 -14.125 L 58.984375 -14.125 C 59.816406 -14.125 60.40625 -14.265625 60.75 -14.546875 C 61.101562 -14.835938 61.34375 -15.113281 61.46875 -15.375 C 61.53125 -15.4375 61.5625 -15.5 61.5625 -15.5625 L 54.59375 -15.5625 C 55.101562 -16.582031 55.359375 -17.851562 55.359375 -19.375 L 55.359375 -26.828125 L 63.578125 -26.828125 L 63.578125 -27.578125 C 63.578125 -29.941406 63.191406 -31.40625 62.421875 -31.96875 C 61.660156 -32.539062 60.929688 -32.828125 60.234375 -32.828125 L 31.59375 -32.828125 C 30.570312 -32.828125 29.519531 -32.890625 28.4375 -33.015625 C 27.363281 -33.148438 26.316406 -33.375 25.296875 -33.6875 L 13.453125 -33.6875 C 12.503906 -34.007812 11.597656 -34.457031 10.734375 -35.03125 C 9.878906 -35.601562 9.101562 -36.367188 8.40625 -37.328125 C 7.195312 -38.972656 6.238281 -41.257812 5.53125 -44.1875 L 16.609375 -44.1875 C 16.546875 -44.570312 16.484375 -44.953125 16.421875 -45.328125 C 16.359375 -45.710938 16.257812 -46.097656 16.125 -46.484375 L 6.78125 -46.484375 C 6.65625 -47.441406 6.554688 -48.425781 6.484375 -49.4375 C 6.421875 -50.457031 6.390625 -51.507812 6.390625 -52.59375 L 6.390625 -53.359375 L 12.796875 -53.359375 L 12.796875 -59.84375 C 12.796875 -59.976562 12.796875 -60.0625 12.796875 -60.09375 C 12.796875 -60.125 12.796875 -60.171875 12.796875 -60.234375 L 11.078125 -60.234375 C 11.078125 -60.234375 11.078125 -60.265625 11.078125 -60.328125 L 7.15625 -60.328125 C 7.15625 -62.617188 7.410156 -64.847656 7.921875 -67.015625 L 16.984375 -67.015625 C 17.554688 -69.429688 18.484375 -71.5625 19.765625 -73.40625 C 19.890625 -73.53125 19.984375 -73.625 20.046875 -73.6875 C 20.109375 -73.75 20.171875 -73.8125 20.234375 -73.875 L 8.6875 -73.875 C 11.164062 -77.0625 14.859375 -78.65625 19.765625 -78.65625 L 60.90625 -78.65625 C 61.34375 -78.65625 61.894531 -78.476562 62.5625 -78.125 C 63.238281 -77.78125 63.578125 -76.875 63.578125 -75.40625 L 63.578125 -73.875 L 75.125 -73.875 L 75.125 -67.765625 C 75.125 -67.640625 75.125 -67.515625 75.125 -67.390625 C 75.125 -67.265625 75.125 -67.140625 75.125 -67.015625 L 66.046875 -67.015625 C 65.921875 -65.929688 65.539062 -65.242188 64.90625 -64.953125 C 64.269531 -64.671875 63.789062 -64.53125 63.46875 -64.53125 L 24.625 -64.53125 C 23.800781 -64.53125 23.210938 -64.398438 22.859375 -64.140625 C 22.515625 -63.890625 22.273438 -63.601562 22.140625 -63.28125 C 21.628906 -62.519531 21.34375 -61.535156 21.28125 -60.328125 L 25.296875 -60.328125 C 25.296875 -60.265625 25.296875 -60.234375 25.296875 -60.234375 L 33.03125 -60.234375 C 33.03125 -60.109375 33.03125 -59.945312 33.03125 -59.75 C 33.03125 -59.5625 33.03125 -59.40625 33.03125 -59.28125 L 33.03125 -53.359375 L 20.515625 -53.359375 L 20.515625 -52.21875 C 20.515625 -49.863281 20.894531 -48.398438 21.65625 -47.828125 C 22.425781 -47.253906 23.160156 -46.96875 23.859375 -46.96875 L 52.40625 -46.96875 C 53.101562 -46.96875 53.785156 -46.914062 54.453125 -46.8125 C 55.117188 -46.71875 55.769531 -46.609375 56.40625 -46.484375 L 70.25 -46.484375 C 72.09375 -46.097656 73.71875 -45.332031 75.125 -44.1875 L 59.65625 -44.1875 C 60.164062 -43.875 60.609375 -43.507812 60.984375 -43.09375 C 61.367188 -42.6875 61.753906 -42.226562 62.140625 -41.71875 C 63.671875 -39.613281 64.722656 -36.9375 65.296875 -33.6875 L 77.125 -33.6875 C 77.507812 -31.71875 77.703125 -29.554688 77.703125 -27.203125 L 77.703125 -26.828125 Z M 40.1875 -17.28125 L 40.1875 -19.765625 L 20.140625 -19.765625 L 20.140625 -17.28125 Z M 61 -49.921875 L 61 -52.40625 L 47.25 -52.40625 L 47.25 -49.921875 Z M 46.484375 -27.78125 L 46.484375 -29.109375 L 28.734375 -29.109375 L 28.734375 -27.78125 Z M 55.265625 -59.65625 L 55.265625 -60.90625 L 37.609375 -60.90625 L 37.609375 -59.65625 Z M 55.265625 -59.65625 "/></g></g></g><g fill="#737373" fill-opacity="1"><g transform="translate(86.980286, 140.900017)"><g><path d="M 20.625 -6.96875 L 20.625 -3.8125 C 20.625 -3.6875 20.601562 -3.546875 20.5625 -3.390625 C 20.53125 -3.234375 20.515625 -3.085938 20.515625 -2.953125 L 22.4375 -2.953125 C 22.375 -2.703125 22.273438 -2.460938 22.140625 -2.234375 C 22.015625 -2.015625 21.890625 -1.8125 21.765625 -1.625 L 19.859375 -1.625 C 19.535156 -1.175781 19.117188 -0.804688 18.609375 -0.515625 C 18.097656 -0.234375 17.523438 -0.09375 16.890625 -0.09375 L 10.6875 -0.09375 C 10.050781 -0.09375 9.476562 -0.234375 8.96875 -0.515625 C 8.457031 -0.804688 8.046875 -1.175781 7.734375 -1.625 L 9.640625 -1.625 C 9.515625 -1.8125 9.398438 -2.015625 9.296875 -2.234375 C 9.203125 -2.460938 9.09375 -2.703125 8.96875 -2.953125 L 5.921875 -2.953125 C 5.921875 -3.085938 5.90625 -3.234375 5.875 -3.390625 C 5.84375 -3.546875 5.828125 -3.6875 5.828125 -3.8125 L 5.828125 -6.96875 L 8.875 -6.96875 L 8.875 -10.015625 C 8.875 -10.460938 8.90625 -10.785156 8.96875 -10.984375 L 7.0625 -10.984375 C 7.25 -11.804688 7.691406 -12.472656 8.390625 -12.984375 C 9.097656 -13.492188 9.863281 -13.75 10.6875 -13.75 L 16.890625 -13.75 C 17.785156 -13.75 18.550781 -13.492188 19.1875 -12.984375 C 19.820312 -12.472656 20.265625 -11.804688 20.515625 -10.984375 L 24.71875 -10.984375 C 24.78125 -10.785156 24.8125 -10.460938 24.8125 -10.015625 L 24.8125 -6.96875 Z M 20.625 -6.96875 "/></g></g></g><g fill="#ffde59" fill-opacity="1"><g transform="translate(120.683409, 140.900017)"><g><path d="M 70.4375 -53.265625 L 76.078125 -53.265625 C 76.015625 -52.054688 75.898438 -50.878906 75.734375 -49.734375 C 75.578125 -48.585938 75.40625 -47.472656 75.21875 -46.390625 L 72.453125 -46.390625 C 72.066406 -44.859375 71.601562 -43.441406 71.0625 -42.140625 C 70.519531 -40.835938 69.898438 -39.644531 69.203125 -38.5625 C 68.691406 -37.925781 68.132812 -37.320312 67.53125 -36.75 C 66.925781 -36.175781 66.273438 -35.632812 65.578125 -35.125 L 62.515625 -35.125 C 60.796875 -34.039062 58.757812 -33.273438 56.40625 -32.828125 L 63.1875 -32.828125 C 61.851562 -32.640625 60.390625 -32.546875 58.796875 -32.546875 L 26.15625 -32.453125 L 26.15625 -15.265625 L 30.453125 -15.265625 L 30.453125 -8.40625 L 22.4375 -8.40625 L 22.4375 -3.625 L 24.71875 -3.625 L 24.71875 -3.25 C 24.71875 -1.78125 24.382812 -0.851562 23.71875 -0.46875 C 23.050781 -0.09375 22.492188 0.09375 22.046875 0.09375 L 13.359375 0.09375 C 12.910156 0.09375 12.335938 -0.09375 11.640625 -0.46875 C 10.941406 -0.851562 10.59375 -1.78125 10.59375 -3.25 L 10.59375 -3.625 L -1.34375 -3.625 L -1.34375 -8.40625 L 9.453125 -8.40625 L 9.453125 -15.265625 L 12.03125 -15.265625 L 12.03125 -32.828125 L 0.484375 -32.828125 L 0.484375 -35.125 L 8.296875 -35.125 L 8.296875 -43.328125 C 8.296875 -44.285156 8.472656 -45.003906 8.828125 -45.484375 C 9.179688 -45.960938 9.546875 -46.265625 9.921875 -46.390625 L 16.03125 -46.390625 C 16.226562 -46.515625 16.421875 -46.578125 16.609375 -46.578125 C 16.796875 -46.578125 16.957031 -46.578125 17.09375 -46.578125 L 58.703125 -46.578125 C 61.117188 -46.578125 62.804688 -47.28125 63.765625 -48.6875 C 64.523438 -49.757812 65 -51.285156 65.1875 -53.265625 L 56.21875 -53.265625 C 56.28125 -53.640625 56.3125 -54.003906 56.3125 -54.359375 C 56.3125 -54.710938 56.3125 -55.109375 56.3125 -55.546875 C 56.3125 -58.734375 55.804688 -61.023438 54.796875 -62.421875 C 54.472656 -62.929688 53.898438 -63.410156 53.078125 -63.859375 L 61 -63.859375 C 60.550781 -64.046875 60.054688 -64.203125 59.515625 -64.328125 C 58.972656 -64.460938 58.351562 -64.53125 57.65625 -64.53125 L 16.125 -64.53125 C 15.8125 -64.53125 15.398438 -64.625 14.890625 -64.8125 C 14.378906 -65 13.96875 -65.445312 13.65625 -66.15625 L 3.8125 -66.15625 C 3.625 -66.53125 3.53125 -67.066406 3.53125 -67.765625 L 3.53125 -73.015625 L 10.59375 -73.015625 L 10.59375 -75.3125 C 10.59375 -76.84375 10.941406 -77.78125 11.640625 -78.125 C 12.335938 -78.476562 12.910156 -78.65625 13.359375 -78.65625 L 57.375 -78.65625 C 63.539062 -78.65625 68.117188 -76.773438 71.109375 -73.015625 L 63.953125 -73.015625 C 64.140625 -72.828125 64.265625 -72.671875 64.328125 -72.546875 C 65.035156 -71.710938 65.625 -70.753906 66.09375 -69.671875 C 66.570312 -68.597656 66.972656 -67.425781 67.296875 -66.15625 L 73.40625 -66.15625 C 73.53125 -65.769531 73.625 -65.382812 73.6875 -65 C 73.75 -64.625 73.8125 -64.242188 73.875 -63.859375 L 69.78125 -63.859375 C 70.03125 -62.648438 70.203125 -61.34375 70.296875 -59.9375 C 70.390625 -58.539062 70.4375 -57.078125 70.4375 -55.546875 C 70.4375 -55.171875 70.4375 -54.789062 70.4375 -54.40625 C 70.4375 -54.019531 70.4375 -53.640625 70.4375 -53.265625 Z M 31.3125 -57.375 L 31.3125 -59.84375 L 11.171875 -59.84375 L 11.171875 -57.375 Z M 49.15625 -51.359375 L 49.15625 -53.265625 L 33.796875 -53.265625 L 33.796875 -51.359375 Z M 57.375 -20.140625 L 57.375 -22.046875 L 33.03125 -22.046875 L 33.03125 -20.140625 Z M 43.8125 -27.296875 L 43.8125 -28.546875 L 26.15625 -28.546875 L 26.15625 -27.296875 Z M 43.8125 -27.296875 "/></g></g></g><g fill="#737373" fill-opacity="1"><g transform="translate(205.738091, 140.900017)"><g><path d="M 20.625 -6.96875 L 20.625 -3.8125 C 20.625 -3.6875 20.601562 -3.546875 20.5625 -3.390625 C 20.53125 -3.234375 20.515625 -3.085938 20.515625 -2.953125 L 22.4375 -2.953125 C 22.375 -2.703125 22.273438 -2.460938 22.140625 -2.234375 C 22.015625 -2.015625 21.890625 -1.8125 21.765625 -1.625 L 19.859375 -1.625 C 19.535156 -1.175781 19.117188 -0.804688 18.609375 -0.515625 C 18.097656 -0.234375 17.523438 -0.09375 16.890625 -0.09375 L 10.6875 -0.09375 C 10.050781 -0.09375 9.476562 -0.234375 8.96875 -0.515625 C 8.457031 -0.804688 8.046875 -1.175781 7.734375 -1.625 L 9.640625 -1.625 C 9.515625 -1.8125 9.398438 -2.015625 9.296875 -2.234375 C 9.203125 -2.460938 9.09375 -2.703125 8.96875 -2.953125 L 5.921875 -2.953125 C 5.921875 -3.085938 5.90625 -3.234375 5.875 -3.390625 C 5.84375 -3.546875 5.828125 -3.6875 5.828125 -3.8125 L 5.828125 -6.96875 L 8.875 -6.96875 L 8.875 -10.015625 C 8.875 -10.460938 8.90625 -10.785156 8.96875 -10.984375 L 7.0625 -10.984375 C 7.25 -11.804688 7.691406 -12.472656 8.390625 -12.984375 C 9.097656 -13.492188 9.863281 -13.75 10.6875 -13.75 L 16.890625 -13.75 C 17.785156 -13.75 18.550781 -13.492188 19.1875 -12.984375 C 19.820312 -12.472656 20.265625 -11.804688 20.515625 -10.984375 L 24.71875 -10.984375 C 24.78125 -10.785156 24.8125 -10.460938 24.8125 -10.015625 L 24.8125 -6.96875 Z M 20.625 -6.96875 "/></g></g></g><g fill="#ffffff" fill-opacity="1"><g transform="translate(239.441214, 140.900017)"><g><path d="M 91.828125 -3.53125 C 92.078125 -2.769531 92.171875 -2.132812 92.109375 -1.625 L 84.46875 -1.625 C 84.46875 -1.5625 84.46875 -1.5 84.46875 -1.4375 C 84.46875 -1.375 84.46875 -1.34375 84.46875 -1.34375 C 84.40625 -1.082031 84.226562 -0.773438 83.9375 -0.421875 C 83.65625 -0.078125 83.132812 0.09375 82.375 0.09375 L 72.15625 0.09375 C 71.082031 0.09375 70.222656 -0.476562 69.578125 -1.625 L 77.21875 -1.625 C 77.21875 -1.625 77.15625 -1.75 77.03125 -2 L 76.453125 -3.53125 L 69.015625 -3.53125 L 66.625 -9.546875 L 72.15625 -9.546875 L 67.015625 -22.234375 L 59.46875 -22.234375 L 57.078125 -28.25 L 62.140625 -28.25 L 56.125 -43.4375 L 60.515625 -43.4375 L 59.75 -45.4375 L 52.6875 -45.4375 L 48.78125 -55.078125 L 53.453125 -55.078125 L 51.0625 -61.09375 L 50.5 -61.09375 C 50.5 -61.09375 50.46875 -61.0625 50.40625 -61 L 48.109375 -55.078125 L 43.4375 -55.078125 L 39.609375 -45.4375 L 46.671875 -45.4375 L 45.8125 -43.4375 L 41.421875 -43.4375 L 38.28125 -35.40625 L 47.4375 -35.40625 L 47.4375 -34.359375 L 37.890625 -34.359375 L 36.171875 -30.0625 L 47.921875 -30.0625 C 49.191406 -30.0625 50.113281 -29.457031 50.6875 -28.25 L 45.625 -28.25 C 45.625 -28.25 45.625 -28.234375 45.625 -28.203125 C 45.625 -28.171875 45.625 -28.15625 45.625 -28.15625 L 48.015625 -22.234375 L 55.546875 -22.234375 L 56.609375 -19.65625 C 56.921875 -18.582031 56.789062 -17.660156 56.21875 -16.890625 C 55.707031 -16.003906 54.878906 -15.5625 53.734375 -15.5625 L 32.828125 -15.5625 L 30.453125 -9.546875 L 24.90625 -9.546875 L 22.53125 -3.53125 L 29.96875 -3.53125 L 29.296875 -1.90625 C 29.296875 -1.84375 29.234375 -1.75 29.109375 -1.625 L 21.484375 -1.625 C 20.972656 -0.476562 20.144531 0.09375 19 0.09375 L 8.5 0.09375 C 7.726562 0.09375 7.195312 -0.078125 6.90625 -0.421875 C 6.625 -0.773438 6.453125 -1.082031 6.390625 -1.34375 C 6.390625 -1.46875 6.359375 -1.5625 6.296875 -1.625 L 13.9375 -1.625 C 13.875 -2.132812 13.96875 -2.769531 14.21875 -3.53125 L 6.78125 -3.53125 C 6.78125 -3.59375 6.796875 -3.625 6.828125 -3.625 C 6.859375 -3.625 6.875 -3.625 6.875 -3.625 L 9.15625 -9.546875 L 14.703125 -9.546875 L 19.859375 -22.234375 L 12.3125 -22.234375 L 14.703125 -28.25 L 19.765625 -28.25 L 25.875 -43.4375 L 30.359375 -43.4375 L 31.125 -45.4375 L 24.046875 -45.4375 L 27.96875 -55.078125 L 32.640625 -55.078125 L 35.03125 -61.09375 L 27.96875 -61.09375 L 31.5 -69.78125 C 31.5 -69.84375 31.515625 -69.90625 31.546875 -69.96875 C 31.578125 -70.03125 31.59375 -70.09375 31.59375 -70.15625 L 27.578125 -70.15625 C 27.710938 -70.476562 27.859375 -70.8125 28.015625 -71.15625 C 28.171875 -71.507812 28.3125 -71.84375 28.4375 -72.15625 L 40.375 -72.15625 C 40.882812 -73.238281 41.394531 -74.160156 41.90625 -74.921875 C 42.414062 -75.691406 42.957031 -76.300781 43.53125 -76.75 C 43.71875 -76.875 43.921875 -77.03125 44.140625 -77.21875 C 44.367188 -77.414062 44.609375 -77.578125 44.859375 -77.703125 C 44.984375 -77.765625 45.109375 -77.828125 45.234375 -77.890625 C 45.367188 -77.953125 45.46875 -78.015625 45.53125 -78.078125 L 42.765625 -78.078125 C 44.546875 -79.160156 46.519531 -79.703125 48.6875 -79.703125 C 50.84375 -79.703125 52.8125 -79.160156 54.59375 -78.078125 L 57.46875 -78.078125 C 59.882812 -76.679688 61.566406 -74.707031 62.515625 -72.15625 L 50.59375 -72.15625 C 50.65625 -71.96875 50.71875 -71.796875 50.78125 -71.640625 C 50.84375 -71.484375 50.90625 -71.335938 50.96875 -71.203125 C 51.03125 -71.015625 51.191406 -70.664062 51.453125 -70.15625 L 55.546875 -70.15625 C 55.546875 -70.09375 55.5625 -70.03125 55.59375 -69.96875 C 55.632812 -69.90625 55.65625 -69.84375 55.65625 -69.78125 L 59.1875 -61.09375 L 66.25 -61.09375 L 68.71875 -55.078125 L 64.046875 -55.078125 L 67.96875 -45.4375 L 75.03125 -45.4375 L 75.796875 -43.4375 L 71.40625 -43.4375 L 77.515625 -28.25 L 72.453125 -28.25 L 74.828125 -22.234375 L 82.375 -22.234375 L 87.53125 -9.546875 L 82.09375 -9.546875 L 84.46875 -3.625 C 84.46875 -3.625 84.46875 -3.59375 84.46875 -3.53125 Z M 43.625 -12.03125 L 43.625 -11.078125 L 59.65625 -11.078125 L 59.65625 -12.03125 Z M 27.015625 -6.78125 L 27.015625 -5.734375 L 37.515625 -5.734375 L 37.515625 -6.78125 Z M 27.015625 -6.78125 "/></g></g></g><g fill="#737373" fill-opacity="1"><g transform="translate(337.94902, 140.900017)"><g><path d="M 20.625 -6.96875 L 20.625 -3.8125 C 20.625 -3.6875 20.601562 -3.546875 20.5625 -3.390625 C 20.53125 -3.234375 20.515625 -3.085938 20.515625 -2.953125 L 22.4375 -2.953125 C 22.375 -2.703125 22.273438 -2.460938 22.140625 -2.234375 C 22.015625 -2.015625 21.890625 -1.8125 21.765625 -1.625 L 19.859375 -1.625 C 19.535156 -1.175781 19.117188 -0.804688 18.609375 -0.515625 C 18.097656 -0.234375 17.523438 -0.09375 16.890625 -0.09375 L 10.6875 -0.09375 C 10.050781 -0.09375 9.476562 -0.234375 8.96875 -0.515625 C 8.457031 -0.804688 8.046875 -1.175781 7.734375 -1.625 L 9.640625 -1.625 C 9.515625 -1.8125 9.398438 -2.015625 9.296875 -2.234375 C 9.203125 -2.460938 9.09375 -2.703125 8.96875 -2.953125 L 5.921875 -2.953125 C 5.921875 -3.085938 5.90625 -3.234375 5.875 -3.390625 C 5.84375 -3.546875 5.828125 -3.6875 5.828125 -3.8125 L 5.828125 -6.96875 L 8.875 -6.96875 L 8.875 -10.015625 C 8.875 -10.460938 8.90625 -10.785156 8.96875 -10.984375 L 7.0625 -10.984375 C 7.25 -11.804688 7.691406 -12.472656 8.390625 -12.984375 C 9.097656 -13.492188 9.863281 -13.75 10.6875 -13.75 L 16.890625 -13.75 C 17.785156 -13.75 18.550781 -13.492188 19.1875 -12.984375 C 19.820312 -12.472656 20.265625 -11.804688 20.515625 -10.984375 L 24.71875 -10.984375 C 24.78125 -10.785156 24.8125 -10.460938 24.8125 -10.015625 L 24.8125 -6.96875 Z M 20.625 -6.96875 "/></g></g></g><g fill="#5ce1e6" fill-opacity="1"><g transform="translate(371.652143, 140.900017)"><g><path d="M 62.8125 -38.5625 C 61.914062 -37.414062 60.894531 -36.398438 59.75 -35.515625 L 68.828125 -35.515625 C 66.660156 -34.046875 64.082031 -33.117188 61.09375 -32.734375 L 63.46875 -28.640625 L 56.890625 -28.640625 L 63.46875 -17.46875 L 70.546875 -17.46875 L 71.875 -15.078125 L 64.8125 -15.078125 L 71.296875 -4.109375 C 71.554688 -3.660156 71.6875 -3.023438 71.6875 -2.203125 L 76.078125 -2.203125 C 76.078125 -2.128906 76.078125 -2.0625 76.078125 -2 C 76.078125 -1.9375 76.078125 -1.875 76.078125 -1.8125 C 75.890625 -0.539062 75.15625 0.09375 73.875 0.09375 L 63.46875 0.09375 C 62.582031 0.09375 61.882812 -0.0976562 61.375 -0.484375 C 60.988281 -0.859375 60.671875 -1.300781 60.421875 -1.8125 L 60.234375 -2.203125 L 55.84375 -2.203125 L 48.484375 -15.078125 L 55.453125 -15.078125 L 54.21875 -17.46875 L 47.15625 -17.46875 L 40.765625 -28.640625 L 47.34375 -28.640625 L 45.25 -32.453125 L 25.109375 -32.453125 L 25.109375 -28.640625 L 18.515625 -28.640625 L 18.515625 -17.46875 L 34.265625 -17.46875 L 34.265625 -15.078125 L 18.515625 -15.078125 L 18.515625 -3.25 C 18.515625 -2.738281 18.484375 -2.390625 18.421875 -2.203125 L 22.8125 -2.203125 C 22.625 -1.179688 22.242188 -0.539062 21.671875 -0.28125 C 21.097656 -0.03125 20.617188 0.09375 20.234375 0.09375 L 11.546875 0.09375 C 11.171875 0.09375 10.675781 -0.03125 10.0625 -0.28125 C 9.457031 -0.539062 9.0625 -1.179688 8.875 -2.203125 L 4.484375 -2.203125 C 4.421875 -2.390625 4.390625 -2.738281 4.390625 -3.25 L 4.390625 -15.078125 L 11.453125 -15.078125 L 11.453125 -17.46875 L 4.390625 -17.46875 L 4.390625 -28.640625 L 10.984375 -28.640625 L 10.984375 -35.515625 L 1.90625 -35.515625 L 1.90625 -43.328125 C 1.90625 -44.035156 2.015625 -44.609375 2.234375 -45.046875 C 2.460938 -45.492188 2.703125 -45.847656 2.953125 -46.109375 L 14.984375 -46.109375 C 15.304688 -46.359375 15.625 -46.5 15.9375 -46.53125 C 16.257812 -46.5625 16.515625 -46.578125 16.703125 -46.578125 L 58.21875 -46.578125 C 60.382812 -46.578125 62.007812 -47.179688 63.09375 -48.390625 L 50.015625 -48.390625 C 50.078125 -48.453125 50.125 -48.5 50.15625 -48.53125 C 50.1875 -48.5625 50.234375 -48.613281 50.296875 -48.6875 C 51.316406 -50.207031 51.828125 -52.398438 51.828125 -55.265625 L 61.859375 -55.265625 C 61.859375 -55.328125 61.875 -55.375 61.90625 -55.40625 C 61.9375 -55.4375 61.953125 -55.484375 61.953125 -55.546875 C 61.953125 -58.472656 61.472656 -60.640625 60.515625 -62.046875 L 56.796875 -62.046875 C 56.796875 -62.109375 56.796875 -62.140625 56.796875 -62.140625 L 52.59375 -62.140625 C 52.59375 -62.203125 52.578125 -62.25 52.546875 -62.28125 C 52.515625 -62.3125 52.5 -62.359375 52.5 -62.421875 C 51.539062 -63.828125 49.820312 -64.53125 47.34375 -64.53125 L 5.828125 -64.53125 C 5.378906 -64.53125 4.800781 -64.703125 4.09375 -65.046875 C 3.394531 -65.398438 3.046875 -66.304688 3.046875 -67.765625 L 3.046875 -68.921875 L 10.59375 -68.921875 L 10.59375 -75.3125 C 10.59375 -75.4375 10.59375 -75.53125 10.59375 -75.59375 C 10.59375 -75.65625 10.59375 -75.722656 10.59375 -75.796875 L 2.484375 -75.796875 C 2.609375 -77.066406 2.988281 -77.859375 3.625 -78.171875 C 4.257812 -78.492188 4.769531 -78.65625 5.15625 -78.65625 L 49.15625 -78.65625 C 53.613281 -78.65625 57.207031 -77.703125 59.9375 -75.796875 L 68.0625 -75.796875 C 69.457031 -74.898438 70.570312 -73.816406 71.40625 -72.546875 C 72.101562 -71.523438 72.769531 -70.316406 73.40625 -68.921875 L 65.953125 -68.921875 C 66.722656 -66.878906 67.296875 -64.617188 67.671875 -62.140625 L 71.875 -62.140625 C 71.875 -62.140625 71.875 -62.109375 71.875 -62.046875 L 75.59375 -62.046875 C 75.726562 -61.085938 75.84375 -60.066406 75.9375 -58.984375 C 76.03125 -57.910156 76.078125 -56.765625 76.078125 -55.546875 C 76.078125 -55.484375 76.078125 -55.4375 76.078125 -55.40625 C 76.078125 -55.375 76.078125 -55.328125 76.078125 -55.265625 L 65.953125 -55.265625 C 65.953125 -52.785156 65.765625 -50.492188 65.390625 -48.390625 L 78.46875 -48.390625 C 78.394531 -47.628906 78.234375 -46.867188 77.984375 -46.109375 L 65.953125 -46.109375 C 65.316406 -43.179688 64.269531 -40.664062 62.8125 -38.5625 Z M 29.203125 -49.921875 L 29.203125 -52.40625 L 9.15625 -52.40625 L 9.15625 -49.921875 Z M 38.078125 -59.65625 L 38.078125 -60.90625 L 20.421875 -60.90625 L 20.421875 -59.65625 Z M 43.140625 -8.296875 L 43.140625 -9.640625 L 25.484375 -9.640625 L 25.484375 -8.296875 Z M 43.140625 -8.296875 "/></g></g></g><g fill="#737373" fill-opacity="1"><g transform="translate(459.085734, 140.900017)"><g><path d="M 20.625 -6.96875 L 20.625 -3.8125 C 20.625 -3.6875 20.601562 -3.546875 20.5625 -3.390625 C 20.53125 -3.234375 20.515625 -3.085938 20.515625 -2.953125 L 22.4375 -2.953125 C 22.375 -2.703125 22.273438 -2.460938 22.140625 -2.234375 C 22.015625 -2.015625 21.890625 -1.8125 21.765625 -1.625 L 19.859375 -1.625 C 19.535156 -1.175781 19.117188 -0.804688 18.609375 -0.515625 C 18.097656 -0.234375 17.523438 -0.09375 16.890625 -0.09375 L 10.6875 -0.09375 C 10.050781 -0.09375 9.476562 -0.234375 8.96875 -0.515625 C 8.457031 -0.804688 8.046875 -1.175781 7.734375 -1.625 L 9.640625 -1.625 C 9.515625 -1.8125 9.398438 -2.015625 9.296875 -2.234375 C 9.203125 -2.460938 9.09375 -2.703125 8.96875 -2.953125 L 5.921875 -2.953125 C 5.921875 -3.085938 5.90625 -3.234375 5.875 -3.390625 C 5.84375 -3.546875 5.828125 -3.6875 5.828125 -3.8125 L 5.828125 -6.96875 L 8.875 -6.96875 L 8.875 -10.015625 C 8.875 -10.460938 8.90625 -10.785156 8.96875 -10.984375 L 7.0625 -10.984375 C 7.25 -11.804688 7.691406 -12.472656 8.390625 -12.984375 C 9.097656 -13.492188 9.863281 -13.75 10.6875 -13.75 L 16.890625 -13.75 C 17.785156 -13.75 18.550781 -13.492188 19.1875 -12.984375 C 19.820312 -12.472656 20.265625 -11.804688 20.515625 -10.984375 L 24.71875 -10.984375 C 24.78125 -10.785156 24.8125 -10.460938 24.8125 -10.015625 L 24.8125 -6.96875 Z M 20.625 -6.96875 "/></g></g></g><g fill="#7ed957" fill-opacity="1"><g transform="translate(492.788857, 140.900017)"><g><path d="M 72.828125 -2.578125 C 72.828125 -2.515625 72.828125 -2.414062 72.828125 -2.28125 C 72.828125 -2.15625 72.828125 -2.03125 72.828125 -1.90625 C 72.703125 -0.570312 71.972656 0.09375 70.640625 0.09375 L 60.234375 0.09375 C 59.398438 0.09375 58.726562 -0.0976562 58.21875 -0.484375 C 58.03125 -0.609375 57.859375 -0.796875 57.703125 -1.046875 C 57.546875 -1.304688 57.367188 -1.5625 57.171875 -1.8125 L 56.796875 -2.578125 L 51.828125 -2.578125 L 48.203125 -8.96875 L 54.59375 -8.96875 L 53.453125 -11.078125 L 48.390625 -11.078125 L 42.859375 -20.8125 L 46.484375 -20.8125 L 42.859375 -27.109375 L 36.84375 -27.109375 L 36.265625 -27.96875 C 35.253906 -29.875 34.207031 -31.113281 33.125 -31.6875 C 32.101562 -32.320312 30.382812 -32.640625 27.96875 -32.640625 L 18.328125 -32.640625 L 18.328125 -27.109375 L 24.4375 -27.109375 L 24.4375 -20.8125 L 19.65625 -20.8125 L 19.65625 -11.078125 L 34.9375 -11.078125 L 34.9375 -8.96875 L 19.46875 -8.96875 L 19.46875 -3.25 C 19.46875 -3.1875 19.453125 -3.085938 19.421875 -2.953125 C 19.390625 -2.828125 19.375 -2.703125 19.375 -2.578125 L 24.34375 -2.578125 C 24.21875 -1.429688 23.832031 -0.695312 23.1875 -0.375 C 22.550781 -0.0625 22.046875 0.09375 21.671875 0.09375 L 12.984375 0.09375 C 12.597656 0.09375 12.085938 -0.0625 11.453125 -0.375 C 10.816406 -0.695312 10.4375 -1.429688 10.3125 -2.578125 L 5.34375 -2.578125 C 5.34375 -2.703125 5.328125 -2.828125 5.296875 -2.953125 C 5.265625 -3.085938 5.25 -3.1875 5.25 -3.25 L 5.25 -8.96875 L 8.59375 -8.96875 L 8.59375 -11.078125 L 5.4375 -11.078125 L 5.4375 -20.8125 L 10.3125 -20.8125 L 10.3125 -27.109375 L 4.203125 -27.109375 L 4.203125 -37.515625 L 10.875 -37.515625 L 10.875 -39.609375 L 5.15625 -39.609375 L 5.15625 -55.84375 L 7.0625 -55.84375 L 7.0625 -62.140625 L 10.875 -62.140625 L 10.875 -66.53125 L 5.734375 -66.53125 L 5.734375 -72.921875 L 10.21875 -72.921875 L 10.21875 -75.3125 C 10.21875 -76.84375 10.582031 -77.78125 11.3125 -78.125 C 12.039062 -78.476562 12.597656 -78.65625 12.984375 -78.65625 L 21.765625 -78.65625 C 22.148438 -78.65625 22.691406 -78.476562 23.390625 -78.125 C 24.085938 -77.78125 24.4375 -76.84375 24.4375 -75.3125 L 24.4375 -72.921875 L 19.859375 -72.921875 L 19.859375 -66.53125 L 25.015625 -66.53125 L 25.015625 -62.140625 L 26.34375 -62.140625 L 26.34375 -55.84375 L 19.28125 -55.84375 L 19.28125 -46.765625 L 28.0625 -46.765625 C 28.695312 -46.765625 29.269531 -46.78125 29.78125 -46.8125 C 30.289062 -46.851562 30.769531 -46.90625 31.21875 -46.96875 C 32.039062 -47.09375 32.675781 -47.28125 33.125 -47.53125 C 33.757812 -47.851562 34.269531 -48.300781 34.65625 -48.875 C 34.96875 -49.1875 35.25 -49.550781 35.5 -49.96875 C 35.757812 -50.382812 36.015625 -50.816406 36.265625 -51.265625 L 38.84375 -55.84375 L 41.515625 -55.84375 L 45.15625 -62.140625 L 48.203125 -62.140625 L 50.6875 -66.53125 L 45.53125 -66.53125 L 49.0625 -72.921875 L 53.640625 -72.921875 L 55.84375 -76.75 C 56.09375 -77.257812 56.441406 -77.703125 56.890625 -78.078125 C 57.273438 -78.460938 57.972656 -78.65625 58.984375 -78.65625 L 68.4375 -78.65625 C 69.582031 -78.65625 70.316406 -78.113281 70.640625 -77.03125 C 70.765625 -76.207031 70.664062 -75.441406 70.34375 -74.734375 L 69.296875 -72.921875 L 64.71875 -72.921875 L 61.09375 -66.53125 L 66.25 -66.53125 L 63.765625 -62.140625 L 60.796875 -62.140625 L 57.171875 -55.84375 L 54.5 -55.84375 L 49.546875 -47.0625 C 48.585938 -45.46875 47.726562 -44.035156 46.96875 -42.765625 C 46.257812 -41.742188 45.617188 -40.914062 45.046875 -40.28125 C 45.179688 -40.21875 45.3125 -40.117188 45.4375 -39.984375 C 45.5625 -39.859375 45.6875 -39.734375 45.8125 -39.609375 L 60.421875 -39.609375 C 60.742188 -39.296875 61.0625 -38.960938 61.375 -38.609375 C 61.695312 -38.253906 61.984375 -37.890625 62.234375 -37.515625 L 46.671875 -37.515625 C 47.179688 -36.816406 47.707031 -36.066406 48.25 -35.265625 C 48.789062 -34.472656 49.316406 -33.628906 49.828125 -32.734375 L 53.078125 -27.109375 L 59.1875 -27.109375 L 62.8125 -20.8125 L 59.1875 -20.8125 L 64.8125 -11.078125 L 69.875 -11.078125 L 71.109375 -8.96875 L 64.71875 -8.96875 L 67.484375 -4.109375 C 67.609375 -3.910156 67.6875 -3.679688 67.71875 -3.421875 C 67.75 -3.171875 67.796875 -2.890625 67.859375 -2.578125 Z M 40.09375 -68.828125 L 40.09375 -70.0625 L 26.15625 -70.0625 L 26.15625 -68.828125 Z M 36.171875 -24.625 L 36.171875 -25.875 L 26.921875 -25.875 L 26.921875 -24.625 Z M 46.296875 -3.4375 L 46.296875 -4.390625 L 32.9375 -4.390625 L 32.9375 -3.4375 Z M 46.296875 -3.4375 "/></g></g></g><g fill="#737373" fill-opacity="1"><g transform="translate(575.546664, 140.900017)"><g><path d="M 20.625 -6.96875 L 20.625 -3.8125 C 20.625 -3.6875 20.601562 -3.546875 20.5625 -3.390625 C 20.53125 -3.234375 20.515625 -3.085938 20.515625 -2.953125 L 22.4375 -2.953125 C 22.375 -2.703125 22.273438 -2.460938 22.140625 -2.234375 C 22.015625 -2.015625 21.890625 -1.8125 21.765625 -1.625 L 19.859375 -1.625 C 19.535156 -1.175781 19.117188 -0.804688 18.609375 -0.515625 C 18.097656 -0.234375 17.523438 -0.09375 16.890625 -0.09375 L 10.6875 -0.09375 C 10.050781 -0.09375 9.476562 -0.234375 8.96875 -0.515625 C 8.457031 -0.804688 8.046875 -1.175781 7.734375 -1.625 L 9.640625 -1.625 C 9.515625 -1.8125 9.398438 -2.015625 9.296875 -2.234375 C 9.203125 -2.460938 9.09375 -2.703125 8.96875 -2.953125 L 5.921875 -2.953125 C 5.921875 -3.085938 5.90625 -3.234375 5.875 -3.390625 C 5.84375 -3.546875 5.828125 -3.6875 5.828125 -3.8125 L 5.828125 -6.96875 L 8.875 -6.96875 L 8.875 -10.015625 C 8.875 -10.460938 8.90625 -10.785156 8.96875 -10.984375 L 7.0625 -10.984375 C 7.25 -11.804688 7.691406 -12.472656 8.390625 -12.984375 C 9.097656 -13.492188 9.863281 -13.75 10.6875 -13.75 L 16.890625 -13.75 C 17.785156 -13.75 18.550781 -13.492188 19.1875 -12.984375 C 19.820312 -12.472656 20.265625 -11.804688 20.515625 -10.984375 L 24.71875 -10.984375 C 24.78125 -10.785156 24.8125 -10.460938 24.8125 -10.015625 L 24.8125 -6.96875 Z M 20.625 -6.96875 "/></g></g></g></svg>